<svg width="375" height="132" viewBox="0 0 375 132" fill="none" xmlns="http://www.w3.org/2000/svg">
<path d="M101.097 22.4659H41.5619C26.5853 22.4659 22.4656 26.5847 22.4656 41.562H101.097V89.4893C101.097 115.325 85.3709 131.051 59.5347 131.051H0V108.585H59.5347C74.5126 108.585 78.631 104.467 78.631 89.4893V76.7586H0V41.562C0 15.7262 15.727 0 41.5619 0H101.097V22.4659Z" fill="#D9CA9C"/>
<path d="M134.713 0H112.247V22.4659H134.713V0Z" fill="white"/>
<path d="M134.713 37.4432H112.247V131.051H134.713V37.4432Z" fill="#D9CA9C"/>
<path d="M145.884 37.44H184.264C217.775 37.44 237.62 57.2847 237.62 90.7965V97.3492H215.154V90.7965C215.154 68.143 206.917 59.9056 184.264 59.9056H145.884V37.44Z" fill="white"/>
<path d="M168.35 71.1384V77.6911C168.35 100.345 176.588 108.582 199.241 108.582H237.62V131.048H199.241C165.729 131.048 145.884 111.203 145.884 77.6911V71.1384L168.35 71.1384Z" fill="#D9CA9C"/>
<path d="M271.456 0V131.051H248.99V1.98364e-05L271.456 0Z" fill="#D9CA9C"/>
<path d="M305.094 0V131.051H282.628V1.98364e-05L305.094 0ZM316.327 73.0142H321.007C343.66 73.0142 351.898 64.7767 351.898 42.1235V37.4433H374.364V42.1235C374.364 60.6579 368.186 75.0736 357.14 84.2472C368.186 93.4209 374.364 107.837 374.364 126.371V131.051H351.898V126.371C351.898 103.718 343.66 95.4802 321.007 95.4802H316.327V73.0142Z" fill="#D9CA9C"/>
</svg>
